<svg xmlns="http://www.w3.org/2000/svg" xmlns:svg="http://www.w3.org/2000/svg" id="SVGRoot" width="256" height="256" version="1.1" viewBox="0 0 256 256"><metadata id="metadata332"/><g id="layer1"><rect style="mix-blend-mode:multiply;fill:teal;fill-opacity:.95857996;stroke-width:1.01149" id="rect1281" width="257.114" height="256.041" x=".015" y=".39"/><rect style="fill:#efdcb7;fill-opacity:1;stroke-width:.737904" id="rect1298" width="11.429" height="124.643" x="47" y="64.107"/><rect style="fill:#efdcb7;fill-opacity:1;stroke-width:.849328" id="rect1300" width="162.806" height="8.234" x="47.179" y="187.48"/><rect style="fill:#ffff8c;fill-opacity:1;stroke-width:.870124" id="rect1302" width="21.071" height="71.25" x="75.571" y="116.393"/><rect style="fill:#11abff;fill-opacity:1" id="rect1304" width="25.893" height="111.786" x="120.75" y="75.5"/><rect style="fill:#cdb5ff;fill-opacity:1;stroke-width:1.13086" id="rect1306" width="23.75" height="88.571" x="167.714" y="98.714"/><path id="path1322" style="fill:#fff;fill-opacity:1;stroke-width:1.26855" d="M 127.76804,5.3049413 A 124.62753,123.49117 0.04193755 0 0 3.7900112,129.43599 124.62753,123.49117 0.04193755 0 0 129.06407,252.28365 124.62753,123.49117 0.04193755 0 0 253.04212,128.15507 124.62753,123.49117 0.04193755 0 0 127.76804,5.3049413 Z m -0.25378,7.1712657 a 117.22075,116.48005 0.19302655 0 1 0.2914,-0.0015 A 117.22075,116.48005 0.19302655 0 1 245.63596,128.35086 117.22075,116.48005 0.19302655 0 1 129.02813,245.43182 117.22075,116.48005 0.19302655 0 1 11.197827,129.55566 117.22075,116.48005 0.19302655 0 1 127.51426,12.476207 Z"/></g></svg>